<svg width="30" height="30" viewBox="0 0 30 30" fill="none" xmlns="http://www.w3.org/2000/svg">
<path d="M1.5 27.5C0.947715 27.5 0.5 27.9477 0.5 28.5C0.5 29.0523 0.947715 29.5 1.5 29.5V27.5ZM28.5 29.5C29.0523 29.5 29.5 29.0523 29.5 28.5C29.5 27.9477 29.0523 27.5 28.5 27.5V29.5ZM7.97944 23.9821L7.83802 22.9922H7.83802L7.97944 23.9821ZM6.01789 22.0206L5.02794 21.8791L6.01789 22.0206ZM7.73424 14.9099L7.02714 14.2028L7.73424 14.9099ZM6.75347 16.8715L7.74342 17.0129L6.75347 16.8715ZM15.0901 22.2658L15.7972 22.9729L15.0901 22.2658ZM13.1285 23.2465L13.2699 24.2365L13.1285 23.2465ZM27.4844 4.96756L26.7773 5.67467V5.67467L27.4844 4.96756ZM27.4844 9.87144L26.7773 9.16433L27.4844 9.87144ZM25.0324 2.51563L25.7395 1.80852L25.7395 1.80852L25.0324 2.51563ZM20.1286 2.51563L20.8357 3.22273V3.22273L20.1286 2.51563ZM18.6766 4.96757C18.6766 4.41528 18.2289 3.96757 17.6766 3.96757C17.1243 3.96757 16.6766 4.41528 16.6766 4.96757L18.6766 4.96757ZM25.0324 13.3234C25.5847 13.3234 26.0324 12.8757 26.0324 12.3234C26.0324 11.7711 25.5847 11.3234 25.0324 11.3234V13.3234ZM1.5 29.5H28.5V27.5H1.5V29.5ZM24.3253 3.22273L26.7773 5.67467L28.1915 4.26046L25.7395 1.80852L24.3253 3.22273ZM26.7773 9.16433L14.383 21.5586L15.7972 22.9729L28.1915 10.5785L26.7773 9.16433ZM8.44135 15.617L20.8357 3.22273L19.4215 1.80852L7.02714 14.2028L8.44135 15.617ZM12.9871 22.2566L7.83802 22.9922L8.12086 24.9721L13.2699 24.2365L12.9871 22.2566ZM7.00784 22.162L7.74342 17.0129L5.76352 16.7301L5.02794 21.8791L7.00784 22.162ZM7.83802 22.9922C7.35375 23.0613 6.93866 22.6463 7.00784 22.162L5.02794 21.8791C4.7702 23.6833 6.31666 25.2298 8.12086 24.9721L7.83802 22.9922ZM7.02714 14.2028C6.34361 14.8864 5.90023 15.7731 5.76352 16.7301L7.74342 17.0129C7.81893 16.4844 8.06382 15.9946 8.44135 15.617L7.02714 14.2028ZM14.383 21.5586C14.0054 21.9362 13.5156 22.1811 12.9871 22.2566L13.2699 24.2365C14.2269 24.0998 15.1136 23.6564 15.7972 22.9729L14.383 21.5586ZM26.7773 5.67467C27.7409 6.63831 27.7409 8.20069 26.7773 9.16433L28.1915 10.5785C29.9362 8.83385 29.9362 6.00515 28.1915 4.26046L26.7773 5.67467ZM25.7395 1.80852C23.9949 0.0638272 21.1661 0.0638268 19.4215 1.80852L20.8357 3.22273C21.7993 2.25909 23.3617 2.25909 24.3253 3.22273L25.7395 1.80852ZM17.6766 4.96757C16.6766 4.96757 16.6766 4.96807 16.6766 4.96857C16.6766 4.96876 16.6766 4.96927 16.6766 4.96964C16.6766 4.97037 16.6766 4.97113 16.6766 4.97194C16.6766 4.97355 16.6766 4.97531 16.6767 4.97723C16.6767 4.98106 16.6767 4.98551 16.6768 4.99055C16.677 5.00064 16.6773 5.01313 16.6777 5.02795C16.6787 5.05758 16.6804 5.09655 16.6836 5.14423C16.69 5.23957 16.7021 5.36997 16.725 5.53042C16.7708 5.85114 16.8601 6.2934 17.0344 6.81626C17.3842 7.86544 18.0733 9.23042 19.4214 10.5786L20.8357 9.16434C19.7319 8.06053 19.195 6.97357 18.9318 6.1838C18.7996 5.78718 18.7357 5.46321 18.7049 5.24757C18.6895 5.13984 18.6824 5.05953 18.6792 5.0112C18.6776 4.98705 18.6769 4.97094 18.6767 4.96346C18.6766 4.95972 18.6766 4.95815 18.6766 4.95881C18.6766 4.95914 18.6766 4.96002 18.6766 4.96148C18.6766 4.96221 18.6766 4.96308 18.6766 4.9641C18.6766 4.9646 18.6766 4.96515 18.6766 4.96572C18.6766 4.96601 18.6766 4.96648 18.6766 4.96662C18.6766 4.96709 18.6766 4.96757 17.6766 4.96757ZM19.4214 10.5786C20.7696 11.9267 22.1346 12.6158 23.1837 12.9656C23.7066 13.1399 24.1489 13.2292 24.4696 13.275C24.63 13.2979 24.7604 13.31 24.8558 13.3164C24.9035 13.3196 24.9424 13.3213 24.9721 13.3223C24.9869 13.3227 24.9994 13.323 25.0095 13.3232C25.0145 13.3233 25.0189 13.3233 25.0228 13.3233C25.0247 13.3234 25.0265 13.3234 25.0281 13.3234C25.0289 13.3234 25.0296 13.3234 25.0304 13.3234C25.0307 13.3234 25.0312 13.3234 25.0314 13.3234C25.0319 13.3234 25.0324 13.3234 25.0324 12.3234C25.0324 11.3234 25.0329 11.3234 25.0334 11.3234C25.0335 11.3234 25.034 11.3234 25.0343 11.3234C25.0349 11.3234 25.0354 11.3234 25.0359 11.3234C25.0369 11.3234 25.0378 11.3234 25.0385 11.3234C25.04 11.3234 25.0409 11.3234 25.0412 11.3234C25.0419 11.3234 25.0403 11.3234 25.0365 11.3233C25.0291 11.3231 25.013 11.3224 24.9888 11.3208C24.9405 11.3176 24.8602 11.3105 24.7524 11.2951C24.5368 11.2643 24.2128 11.2004 23.8162 11.0682C23.0264 10.8049 21.9395 10.2681 20.8357 9.16434L19.4214 10.5786Z" fill="#87869D"/>
</svg>
