<svg width="30" height="32" viewBox="0 0 30 32" fill="none" xmlns="http://www.w3.org/2000/svg">
<path d="M5.5 10C5.5 9.44771 5.05228 9 4.5 9C3.94772 9 3.5 9.44771 3.5 10H5.5ZM26.5 10C26.5 9.44771 26.0523 9 25.5 9C24.9477 9 24.5 9.44771 24.5 10H26.5ZM19 14.5C19 13.9477 18.5523 13.5 18 13.5C17.4477 13.5 17 13.9477 17 14.5H19ZM17 23.5C17 24.0523 17.4477 24.5 18 24.5C18.5523 24.5 19 24.0523 19 23.5H17ZM13 14.5C13 13.9477 12.5523 13.5 12 13.5C11.4477 13.5 11 13.9477 11 14.5H13ZM11 23.5C11 24.0523 11.4477 24.5 12 24.5C12.5523 24.5 13 24.0523 13 23.5H11ZM28.5 6.5C29.0523 6.5 29.5 6.05228 29.5 5.5C29.5 4.94772 29.0523 4.5 28.5 4.5V6.5ZM1.5 4.5C0.947715 4.5 0.5 4.94772 0.5 5.5C0.5 6.05228 0.947715 6.5 1.5 6.5V4.5ZM18.8906 2.3359L18.0585 2.8906V2.8906L18.8906 2.3359ZM11.1094 2.3359L10.2774 1.7812L11.1094 2.3359ZM10.5 32H19.5V30H10.5V32ZM3.5 10V25H5.5V10H3.5ZM26.5 25V10H24.5V25H26.5ZM19.5 32C23.366 32 26.5 28.866 26.5 25H24.5C24.5 27.7614 22.2614 30 19.5 30V32ZM10.5 30C7.73858 30 5.5 27.7614 5.5 25H3.5C3.5 28.866 6.63401 32 10.5 32V30ZM17 14.5V23.5H19V14.5H17ZM11 14.5L11 23.5H13L13 14.5H11ZM13.6056 2H16.3944V0H13.6056V2ZM18.0585 2.8906L20.1679 6.0547L21.8321 4.9453L19.7226 1.7812L18.0585 2.8906ZM21 4.5H9V6.5H21V4.5ZM9.83205 6.0547L11.9415 2.8906L10.2774 1.7812L8.16795 4.9453L9.83205 6.0547ZM21 6.5H28.5V4.5H21V6.5ZM9 4.5H1.5V6.5H9V4.5ZM16.3944 2C17.0632 2 17.6876 2.3342 18.0585 2.8906L19.7226 1.7812C18.9808 0.668405 17.7319 0 16.3944 0V2ZM13.6056 0C12.2681 0 11.0192 0.668404 10.2774 1.7812L11.9415 2.8906C12.3124 2.3342 12.9368 2 13.6056 2V0Z" fill="#EB5757"/>
</svg>
