<svg width="112" height="43" viewBox="0 0 112 43" fill="none" xmlns="http://www.w3.org/2000/svg">
<path d="M106.788 27.7109C106.601 28.1144 106.343 28.4508 106.011 28.7212C105.68 28.9913 105.288 29.1962 104.837 29.3343C104.385 29.4721 103.828 29.5408 103.165 29.5408H99.7341V22.9069H102.552C103.419 22.9069 104.123 22.9848 104.665 23.1408C105.207 23.2968 105.652 23.52 106.002 23.8084C106.351 24.0969 106.616 24.4546 106.797 24.8808C106.977 25.3073 107.068 25.7912 107.068 26.3324C107.068 26.8494 106.974 27.309 106.788 27.7109ZM105.658 17.542C105.526 17.921 105.324 18.2519 105.054 18.534C104.783 18.8171 104.442 19.039 104.032 19.2011C103.623 19.3637 103.075 19.4447 102.389 19.4447H99.7341V13.3864H102.136C102.87 13.3864 103.458 13.4523 103.897 13.5847C104.336 13.7174 104.701 13.9063 104.99 14.1524C105.279 14.3992 105.496 14.7091 105.641 15.0817C105.785 15.454 105.858 15.8748 105.858 16.3439C105.858 16.7641 105.791 17.1638 105.658 17.542ZM111.638 24.0243C111.397 23.3876 111.069 22.8318 110.653 22.3568C110.238 21.8824 109.75 21.4937 109.19 21.1936C108.63 20.8935 108.018 20.6829 107.356 20.5629C107.874 20.3702 108.335 20.1177 108.739 19.8053C109.143 19.493 109.482 19.1323 109.76 18.7238C110.036 18.3149 110.247 17.861 110.391 17.3621C110.537 16.8633 110.608 16.3316 110.608 15.7663C110.608 14.7571 110.428 13.8795 110.066 13.1342C109.706 12.3891 109.184 11.7724 108.504 11.2861C107.823 10.7991 106.986 10.4359 105.993 10.1947C104.999 9.95457 103.786 9.83448 102.353 9.83448H96.4819C96.0846 9.83448 95.7506 9.95174 95.48 10.1859C95.2085 10.4208 95.0727 10.8025 95.0727 11.3311V31.6692C95.0727 32.1981 95.2085 32.5796 95.48 32.8144C95.7506 33.0484 96.0846 33.1659 96.4819 33.1659H102.696C103.636 33.1659 104.487 33.1091 105.252 32.9941C106.017 32.8797 106.737 32.7031 107.411 32.463C108.085 32.2224 108.703 31.9151 109.262 31.5424C109.822 31.1705 110.304 30.7251 110.708 30.2081C111.111 29.6921 111.427 29.097 111.656 28.424C111.885 27.7509 112 26.9992 112 26.1694C112 25.3766 111.878 24.6617 111.638 24.0243ZM84.38 24.204H77.7494L81.0557 14.288H81.0735L84.38 24.204ZM84.5782 10.718C84.5057 10.4902 84.4175 10.3095 84.3159 10.1771C84.2134 10.0453 84.0452 9.94633 83.8103 9.87952C83.5755 9.81399 83.2467 9.77138 82.8254 9.75314C82.4041 9.73547 81.838 9.72635 81.1279 9.72635C80.514 9.72635 80.0195 9.73547 79.646 9.75314C79.2729 9.77138 78.9807 9.81399 78.7709 9.87952C78.5594 9.94633 78.4059 10.0416 78.3099 10.1679C78.2129 10.2944 78.1293 10.4592 78.0568 10.6638L70.8485 31.3628C70.7045 31.7827 70.6144 32.12 70.5786 32.3722C70.5418 32.6244 70.5841 32.8207 70.7045 32.9585C70.8248 33.0965 71.0412 33.1838 71.3551 33.2195C71.6684 33.2557 72.1011 33.2737 72.6558 33.2737C73.173 33.2737 73.5917 33.262 73.9115 33.2374C74.2303 33.2138 74.4766 33.1681 74.6516 33.1028C74.8257 33.0366 74.9526 32.9459 75.0313 32.8318C75.1093 32.7183 75.1728 32.5764 75.2209 32.4084L76.7019 27.8471H85.481L87.0525 32.5345C87.1008 32.6905 87.1608 32.8166 87.2333 32.9128C87.3057 33.0089 87.4323 33.0839 87.6122 33.1382C87.7929 33.1927 88.0553 33.228 88.3992 33.2469C88.7424 33.2642 89.2204 33.2737 89.8342 33.2737C90.4247 33.2737 90.8877 33.2579 91.2258 33.228C91.5623 33.199 91.798 33.1202 91.9304 32.9941C92.062 32.868 92.1103 32.6788 92.0745 32.4258C92.0387 32.1745 91.9471 31.8309 91.8038 31.3981L84.5782 10.718ZM69.8098 30.2712C69.779 30.0253 69.735 29.8276 69.6758 29.677C69.614 29.5266 69.5392 29.4178 69.4481 29.3523C69.3586 29.2861 69.2529 29.2524 69.1332 29.2524H61.7808V10.4832C61.7808 10.364 61.7411 10.2559 61.663 10.1591C61.585 10.063 61.4555 9.98483 61.2749 9.92495C61.0944 9.86475 60.853 9.81681 60.5521 9.78082C60.2511 9.74459 59.8656 9.72635 59.3962 9.72635C58.9385 9.72635 58.5562 9.74459 58.2487 9.78082C57.942 9.81681 57.698 9.86475 57.5174 9.92495C57.3369 9.98483 57.2077 10.063 57.1287 10.1591C57.0506 10.2559 57.0116 10.364 57.0116 10.4832V31.6692C57.0116 32.1981 57.1476 32.5796 57.4182 32.8144C57.6892 33.0484 58.0233 33.1659 58.4212 33.1659H69.1332C69.2529 33.1659 69.3586 33.1296 69.4481 33.0571C69.5392 32.9852 69.614 32.868 69.6758 32.7056C69.735 32.5433 69.779 32.3391 69.8098 32.0926C69.8391 31.8467 69.8554 31.5424 69.8554 31.1822C69.8554 30.8213 69.8391 30.518 69.8098 30.2712ZM53.742 11.6375C53.8864 11.2167 53.9796 10.8801 54.0221 10.6279C54.0641 10.3754 54.028 10.1803 53.9138 10.0416C53.799 9.9038 53.5888 9.81681 53.2814 9.78082C52.9742 9.74459 52.5435 9.72635 51.9902 9.72635C51.4238 9.72635 50.978 9.7383 50.6531 9.76226C50.3284 9.7872 50.0779 9.83449 49.9032 9.90631C49.7288 9.97853 49.6055 10.0775 49.5333 10.2042C49.4608 10.33 49.4006 10.4955 49.3528 10.7001L43.7705 28.6036H43.7526L38.0623 10.6102C38.0022 10.4296 37.9391 10.2792 37.8727 10.1591C37.8063 10.0396 37.6889 9.94884 37.5204 9.88863C37.3518 9.82876 37.1111 9.7872 36.7982 9.76226C36.4848 9.7383 36.0509 9.72635 35.4975 9.72635C34.8468 9.72635 34.341 9.74177 33.9799 9.77138C33.6187 9.80197 33.3627 9.87951 33.2124 10.0053C33.0612 10.1323 33.0016 10.3218 33.0315 10.574C33.0612 10.8264 33.1489 11.1685 33.2934 11.6013L40.2482 32.2817C40.2961 32.4384 40.3474 32.5676 40.4017 32.67C40.4558 32.7719 40.5342 32.8585 40.6363 32.931C40.7388 33.0026 40.8654 33.0634 41.0156 33.1114C41.1663 33.1596 41.3618 33.1949 41.6028 33.2195C41.8439 33.2432 42.1358 33.2579 42.4793 33.2642C42.8222 33.2705 43.235 33.2737 43.7165 33.2737C44.3187 33.2737 44.8063 33.2642 45.1798 33.2469C45.553 33.228 45.848 33.1864 46.0647 33.1202C46.2817 33.0546 46.4378 32.9585 46.5345 32.8318C46.6304 32.7056 46.7092 32.5402 46.7693 32.3359L53.742 11.6375ZM30.0418 11.728C30.0418 11.4276 30.0028 11.1593 29.9244 10.9254C29.8456 10.6906 29.7314 10.493 29.5814 10.33C29.4305 10.1679 29.2379 10.0453 29.003 9.96086C28.7685 9.87701 28.4883 9.83448 28.1634 9.83448H24.966C24.5204 9.83448 24.129 9.87952 23.7917 9.96933C23.4543 10.0601 23.1625 10.2134 22.9159 10.4296C22.6687 10.6461 22.452 10.9283 22.2652 11.277C22.0782 11.6259 21.907 12.0524 21.7506 12.5574L16.5119 26.4223H16.4397L11.3815 12.5211C11.2374 12.0165 11.0682 11.5922 10.8756 11.2501C10.683 10.9069 10.4423 10.6314 10.153 10.4208C9.86447 10.2105 9.52093 10.0601 9.12375 9.96933C8.72616 9.87952 8.25024 9.83448 7.69654 9.83448H4.58968C4.04769 9.83448 3.61403 9.99709 3.28903 10.3218C2.96371 10.6461 2.80105 11.1149 2.80105 11.728V32.5166C2.80105 32.6363 2.83423 32.7451 2.90027 32.8412C2.96664 32.9374 3.08701 33.0152 3.26203 33.0751C3.4364 33.136 3.66804 33.1838 3.95725 33.2195C4.24647 33.2557 4.60757 33.2737 5.0409 33.2737C5.48628 33.2737 5.85097 33.2557 6.134 33.2195C6.41671 33.1838 6.64898 33.136 6.82954 33.0751C7.0101 33.0152 7.13339 32.9374 7.19944 32.8412C7.2658 32.7451 7.29931 32.6363 7.29931 32.5166V13.5308H7.33542L13.8745 32.4982C13.9105 32.6307 13.9831 32.7451 14.0911 32.8412C14.1998 32.9374 14.3474 33.0183 14.5339 33.0839C14.7206 33.1508 14.9584 33.199 15.2476 33.228C15.5366 33.2579 15.8856 33.2737 16.2948 33.2737C16.7041 33.2737 17.0541 33.2642 17.3427 33.2469C17.632 33.228 17.8695 33.1896 18.0565 33.1296C18.2426 33.0697 18.3906 32.9878 18.4989 32.886C18.6076 32.7845 18.6853 32.6552 18.7338 32.4982L25.508 13.5308H25.5439V32.5166C25.5439 32.6363 25.58 32.7451 25.6525 32.8412C25.7244 32.9374 25.8448 33.0152 26.0137 33.0751C26.1821 33.136 26.4108 33.1838 26.7001 33.2195C26.989 33.2557 27.3504 33.2737 27.7837 33.2737C28.2294 33.2737 28.597 33.2557 28.8856 33.2195C29.1748 33.1838 29.4068 33.136 29.5814 33.0751C29.7558 33.0152 29.8762 32.9374 29.9425 32.8412C30.0086 32.7451 30.0418 32.6363 30.0418 32.5166V11.728ZM55.1292 43H0V0H55.1292V43Z" fill="#4F71C0"/>
</svg>
