<svg width="24" height="28" viewBox="0 0 24 28" fill="none" xmlns="http://www.w3.org/2000/svg">
<path d="M7 9.5C6.58579 9.5 6.25 9.83579 6.25 10.25C6.25 10.6642 6.58579 11 7 11V9.5ZM12 11C12.4142 11 12.75 10.6642 12.75 10.25C12.75 9.83579 12.4142 9.5 12 9.5V11ZM7 14.5C6.58579 14.5 6.25 14.8358 6.25 15.25C6.25 15.6642 6.58579 16 7 16V14.5ZM17 16C17.4142 16 17.75 15.6642 17.75 15.25C17.75 14.8358 17.4142 14.5 17 14.5V16ZM7 19.5C6.58579 19.5 6.25 19.8358 6.25 20.25C6.25 20.6642 6.58579 21 7 21V19.5ZM17 21C17.4142 21 17.75 20.6642 17.75 20.25C17.75 19.8358 17.4142 19.5 17 19.5V21ZM17.7494 1.5C17.7494 1.08579 17.4136 0.75 16.9994 0.75C16.5852 0.75 16.2494 1.08579 16.2494 1.5H17.7494ZM16.2494 5.25C16.2494 5.66421 16.5852 6 16.9994 6C17.4136 6 17.7494 5.66421 17.7494 5.25H16.2494ZM7.74939 1.5C7.74939 1.08579 7.4136 0.75 6.99939 0.75C6.58518 0.75 6.24939 1.08579 6.24939 1.5H7.74939ZM6.24939 5.25C6.24939 5.66421 6.58518 6 6.99939 6C7.4136 6 7.74939 5.66421 7.74939 5.25H6.24939ZM5.75 4.125H18.25V2.625H5.75V4.125ZM22.5 8.375V21.5H24V8.375H22.5ZM18.25 25.75H5.75V27.25H18.25V25.75ZM1.5 21.5V8.375H0V21.5H1.5ZM5.75 25.75C3.40279 25.75 1.5 23.8472 1.5 21.5H0C0 24.6756 2.57436 27.25 5.75 27.25V25.75ZM22.5 21.5C22.5 23.8472 20.5972 25.75 18.25 25.75V27.25C21.4256 27.25 24 24.6756 24 21.5H22.5ZM18.25 4.125C20.5972 4.125 22.5 6.02779 22.5 8.375H24C24 5.19936 21.4256 2.625 18.25 2.625V4.125ZM5.75 2.625C2.57436 2.625 0 5.19936 0 8.375H1.5C1.5 6.02779 3.40279 4.125 5.75 4.125V2.625ZM7 11H12V9.5H7V11ZM7 16H17V14.5H7V16ZM7 21H17V19.5H7V21ZM16.2494 1.5V5.25H17.7494V1.5H16.2494ZM6.24939 1.5V5.25H7.74939V1.5H6.24939Z" fill="#4F71C0"/>
</svg>
