<svg width="26" height="28" viewBox="0 0 26 28" fill="none" xmlns="http://www.w3.org/2000/svg">
<path d="M16.0232 4.63443L14.9028 2.0962C14.7429 1.73381 14.3841 1.5 13.988 1.5H11.981C11.5849 1.5 11.2261 1.73381 11.0661 2.0962L9.9458 4.63443C9.33232 6.02432 7.89225 6.85971 6.38118 6.7023L3.33107 6.38455C2.9401 6.34382 2.56153 6.53592 2.36355 6.87552L1.45783 8.42909C1.25599 8.77531 1.28034 9.2086 1.51971 9.53002L3.29945 11.9199C4.21961 13.1555 4.22364 14.8475 3.30937 16.0875L1.51516 18.5208C1.27835 18.842 1.25515 19.2732 1.45613 19.618L2.36071 21.1695C2.56014 21.5116 2.94262 21.7038 3.3361 21.6596L6.36221 21.3201C7.88215 21.1496 9.33679 21.9858 9.95439 23.385L11.0661 25.9038C11.2261 26.2662 11.5849 26.5 11.981 26.5H13.988C14.3841 26.5 14.7429 26.2662 14.9028 25.9038L16.0146 23.385C16.6322 21.9858 18.0868 21.1496 19.6068 21.3201L22.6389 21.6603C23.0293 21.7041 23.4092 21.5153 23.6099 21.1776L24.5382 19.6164C24.7426 19.2727 24.7226 18.8404 24.4874 18.5171L22.7068 16.069C21.8104 14.8368 21.8144 13.1661 22.7165 11.9381L24.4829 9.53379C24.7206 9.2102 24.7417 8.77581 24.5365 8.43068L23.6071 6.86748C23.4078 6.53228 23.0318 6.34351 22.6439 6.38392L19.5878 6.7023C18.0767 6.85971 16.6366 6.02432 16.0232 4.63443Z" fill="#4F4F4F" stroke="#4F4F4F" stroke-width="1.5" stroke-miterlimit="10"/>
<path d="M16.433 13.934C16.433 15.8515 14.8987 17.4373 13.0002 17.4373C11.1018 17.4373 9.55664 15.8515 9.55664 13.934C9.55664 12.0165 11.1018 10.5623 13.0002 10.5623C14.8987 10.5623 16.433 12.0165 16.433 13.934Z" fill="#FCFCFC" stroke="#4F4F4F" stroke-width="1.5"/>
</svg>
