<svg width="28" height="28" viewBox="0 0 28 28" fill="none" xmlns="http://www.w3.org/2000/svg">
<path d="M14 14H13.25C13.25 14.3228 13.4566 14.6094 13.7628 14.7115L14 14ZM14.75 7.75C14.75 7.33579 14.4142 7 14 7C13.5858 7 13.25 7.33579 13.25 7.75H14.75ZM17.5128 15.9615C17.9058 16.0925 18.3305 15.8801 18.4615 15.4872C18.5925 15.0942 18.3801 14.6695 17.9872 14.5385L17.5128 15.9615ZM14.75 14V7.75H13.25V14H14.75ZM13.7628 14.7115L17.5128 15.9615L17.9872 14.5385L14.2372 13.2885L13.7628 14.7115ZM25.75 14C25.75 20.4893 20.4893 25.75 14 25.75V27.25C21.3178 27.25 27.25 21.3178 27.25 14H25.75ZM14 25.75C7.51065 25.75 2.25 20.4893 2.25 14H0.75C0.75 21.3178 6.68223 27.25 14 27.25V25.75ZM2.25 14C2.25 7.51065 7.51065 2.25 14 2.25V0.75C6.68223 0.75 0.75 6.68223 0.75 14H2.25ZM14 2.25C20.4893 2.25 25.75 7.51065 25.75 14H27.25C27.25 6.68223 21.3178 0.75 14 0.75V2.25Z" fill="#262626"/>
</svg>
